<svg width="60" height="60" viewBox="0 0 60 60" fill="none" xmlns="http://www.w3.org/2000/svg">
<path d="M46 4.6C41.3 1.7 35.9 0 30 0V4.6H46Z" fill="#ED4C5C"/>
<path d="M30 9.2H51.6C49.9 7.5 48 5.9 46 4.6H30V9.2Z" fill="white"/>
<path d="M30 13.8H55.3C54.2 12.1 53 10.6 51.7 9.2H30V13.8Z" fill="#ED4C5C"/>
<path d="M30 18.4H57.7C57 16.8 56.2 15.2 55.3 13.8H30V18.4Z" fill="white"/>
<path d="M30 23H59.2C58.8 21.4 58.3 19.9 57.7 18.4H30V23Z" fill="#ED4C5C"/>
<path d="M30 27.7H59.9C59.8 26.1 59.5 24.6 59.2 23.1H30V27.7Z" fill="white"/>
<path d="M59.9 27.7H30V30H0C0 30.8 -9.68575e-08 31.5 0.0999999 32.3H59.9C60 31.5 60 30.8 60 30C60 29.2 60 28.4 59.9 27.7Z" fill="#ED4C5C"/>
<path d="M0.800006 36.9H59.2C59.6 35.4 59.8 33.9 59.9 32.3H0.100006C0.200006 33.8 0.400006 35.4 0.800006 36.9Z" fill="white"/>
<path d="M2.3 41.5H57.7C58.3 40 58.8 38.5 59.2 36.9H0.800003C1.2 38.5 1.7 40 2.3 41.5Z" fill="#ED4C5C"/>
<path d="M4.7 46.1H55.3C56.2 44.6 57 43.1 57.7 41.5H2.3C3 43.1 3.8 44.6 4.7 46.1Z" fill="white"/>
<path d="M8.3 50.7H51.7C53 49.3 54.3 47.7 55.3 46.1H4.7C5.7 47.8 7 49.3 8.3 50.7Z" fill="#ED4C5C"/>
<path d="M13.9 55.3H46.1C48.2 54 50 52.4 51.7 50.7H8.3C10 52.5 11.9 54 13.9 55.3Z" fill="white"/>
<path d="M30 60C35.9 60 41.4 58.3 46.1 55.3H13.9C18.6 58.3 24.1 60 30 60Z" fill="#ED4C5C"/>
<path d="M14 4.6C11.9 5.9 10 7.5 8.3 9.2C6.9 10.6 5.7 12.2 4.7 13.8C3.8 15.3 2.9 16.8 2.3 18.4C1.7 19.9 1.2 21.4 0.8 23C0.4 24.5 0.2 26 0.0999999 27.6C-9.68575e-08 28.4 0 29.2 0 30H30V0C24.1 0 18.7 1.7 14 4.6Z" fill="#428BC1"/>
<path d="M23 1L23.5 2.5H25L23.8 3.5L24.2 5L23 4.1L21.8 5L22.2 3.5L21 2.5H22.5L23 1Z" fill="white"/>
<path d="M27 7L27.5 8.5H29L27.8 9.5L28.2 11L27 10.1L25.8 11L26.2 9.5L25 8.5H26.5L27 7Z" fill="white"/>
<path d="M19 7L19.5 8.5H21L19.8 9.5L20.2 11L19 10.1L17.8 11L18.2 9.5L17 8.5H18.5L19 7Z" fill="white"/>
<path d="M23 13L23.5 14.5H25L23.8 15.5L24.2 17L23 16.1L21.8 17L22.2 15.5L21 14.5H22.5L23 13Z" fill="white"/>
<path d="M15 13L15.5 14.5H17L15.8 15.5L16.2 17L15 16.1L13.8 17L14.2 15.5L13 14.5H14.5L15 13Z" fill="white"/>
<path d="M7 13L7.5 14.5H9L7.8 15.5L8.2 17L7 16.1L5.8 17L6.2 15.5L5 14.5H6.5L7 13Z" fill="white"/>
<path d="M27 19L27.5 20.5H29L27.8 21.5L28.2 23L27 22.1L25.8 23L26.2 21.5L25 20.5H26.5L27 19Z" fill="white"/>
<path d="M19 19L19.5 20.5H21L19.8 21.5L20.2 23L19 22.1L17.8 23L18.2 21.5L17 20.5H18.5L19 19Z" fill="white"/>
<path d="M11 19L11.5 20.5H13L11.8 21.5L12.2 23L11 22.1L9.8 23L10.2 21.5L9 20.5H10.5L11 19Z" fill="white"/>
<path d="M23 25L23.5 26.5H25L23.8 27.5L24.2 29L23 28.1L21.8 29L22.2 27.5L21 26.5H22.5L23 25Z" fill="white"/>
<path d="M15 25L15.5 26.5H17L15.8 27.5L16.2 29L15 28.1L13.8 29L14.2 27.5L13 26.5H14.5L15 25Z" fill="white"/>
<path d="M7 25L7.5 26.5H9L7.8 27.5L8.2 29L7 28.1L5.8 29L6.2 27.5L5 26.5H6.5L7 25Z" fill="white"/>
<path d="M9.79999 11L11 10.1L12.2 11L11.7 9.5L12.9 8.5H11.4L11 7L10.5 8.5H9.09999L10.3 9.4L9.79999 11Z" fill="white"/>
<path d="M1.79999 23L2.99999 22.1L4.19999 23L3.69999 21.5L4.89999 20.5H3.49999L2.99999 19L2.49999 20.5H1.49999C1.49999 20.6 1.39999 20.7 1.39999 20.8L2.19999 21.4L1.79999 23Z" fill="white"/>
</svg>
