<svg width="35" height="35" viewBox="0 0 35 35" fill="none" xmlns="http://www.w3.org/2000/svg">
<g clip-path="url(#clip0)">
<path d="M0 17.5C0 25.1417 4.9 31.6167 11.6667 34.0084V0.991699C4.9 3.38337 0 9.85837 0 17.5Z" fill="#428BC1"/>
<path d="M35 17.5C35 9.85837 30.1584 3.38337 23.3334 0.991699V34.0084C30.1584 31.6167 35 25.1417 35 17.5Z" fill="#ED4C5C"/>
<path d="M11.6666 34.0083C13.475 34.65 15.4583 35 17.5 35C19.5416 35 21.525 34.65 23.3333 34.0083V0.991667C21.525 0.35 19.6 0 17.5 0C15.4 0 13.475 0.35 11.6666 0.991667V34.0083Z" fill="white"/>
</g>
<defs>
<clipPath id="clip0">
<rect width="35" height="35" fill="white"/>
</clipPath>
</defs>
</svg>
